<svg width="158" height="86" viewBox="0 0 158 86" fill="none" xmlns="http://www.w3.org/2000/svg">
<path d="M10.5614 31.4016H0.377197V37.0595H71.2895C72.1947 28.3086 76.6959 21.846 78.8333 19.7086C82.7561 23.0279 85.7485 32.6589 86.7544 37.0595H156.912V31.4016H148.237C130.509 -10.844 91.6579 -1.037 78.8333 12.1647C45.6404 -15.3703 13.2018 13.2963 10.5614 31.4016Z" fill="#62C4BF"/>
<path d="M66.7628 31.4016H15.4646C28.6664 -4.80894 68.2716 4.62089 75.0611 16.3139C71.44 19.9349 68.0202 27.8811 66.7628 31.4016Z" fill="white" stroke="white" stroke-width="0.754386"/>
<path d="M90.526 31.4016C88.112 21.7455 84.2395 17.0683 82.605 15.9367C110.894 -7.07209 138.052 14.4279 142.579 31.4016H90.526Z" fill="white" stroke="white" stroke-width="0.754386"/>
<path d="M147.106 54.4104H157.29V48.7525L86.3775 48.7525C85.4723 57.5033 80.9711 63.9659 78.8337 66.1033C74.9109 62.784 71.9184 53.1531 70.9126 48.7525L0.754715 48.7525V54.4104H9.43015C27.1582 96.656 66.0091 86.849 78.8337 73.6472C112.027 101.182 144.465 72.5156 147.106 54.4104Z" fill="#62C4BF"/>
<path d="M90.9034 54.4104L142.202 54.4104C129 90.6209 89.3946 81.1911 82.6052 69.4981C86.2262 65.877 89.6461 57.9308 90.9034 54.4104Z" fill="white" stroke="white" stroke-width="0.754386"/>
<path d="M67.1402 54.4104C69.5543 64.0665 73.4268 68.7437 75.0613 69.8753C46.7718 92.884 19.6139 71.384 15.0876 54.4104L67.1402 54.4104Z" fill="white" stroke="white" stroke-width="0.754386"/>
<ellipse cx="2.64035" cy="42.7174" rx="2.64035" ry="2.26316" fill="#62C4BF"/>
<ellipse cx="78.8332" cy="42.7174" rx="2.64035" ry="2.26316" fill="#62C4BF"/>
<ellipse cx="154.272" cy="42.7174" rx="2.64035" ry="2.26316" fill="#62C4BF"/>
<path d="M76.9472 41.963H4.90332V43.4718L76.9472 43.849V41.963Z" fill="#62C4BF"/>
<path d="M153.14 41.963H81.0964V43.4718L153.14 43.849V41.963Z" fill="#62C4BF"/>
</svg>
